<svg xmlns="http://www.w3.org/2000/svg" xmlns:xlink="http://www.w3.org/1999/xlink" width="512" zoomAndPan="magnify" viewBox="0 0 384 383.999986" height="512" preserveAspectRatio="xMidYMid meet" version="1.0"><defs><clipPath id="51ecb63dfc"><path d="M 20.160156 0 L 363.660156 0 L 363.660156 384 L 20.160156 384 Z M 20.160156 0 " clip-rule="nonzero"/></clipPath></defs><g clip-path="url(#51ecb63dfc)"><path fill="#0277bd" d="M 363.613281 0 L 20.207031 0 L 50.507812 343.578125 L 191.910156 384 L 333.3125 343.578125 Z M 363.613281 0 " fill-opacity="1" fill-rule="nonzero"/></g><path fill="#039be5" d="M 191.910156 30.316406 L 191.910156 352.671875 L 305.03125 320.335938 L 330.28125 30.316406 Z M 191.910156 30.316406 " fill-opacity="1" fill-rule="nonzero"/><path fill="#ffffff" d="M 283.820312 80.84375 L 191.910156 80.84375 L 191.910156 121.261719 L 241.402344 121.261719 L 238.371094 161.683594 L 191.910156 161.683594 L 191.910156 202.105469 L 236.351562 202.105469 L 233.320312 247.578125 L 191.910156 261.726562 L 191.910156 304.167969 L 271.699219 277.894531 L 278.769531 161.683594 Z M 283.820312 80.84375 " fill-opacity="1" fill-rule="nonzero"/><path fill="#eeeeee" d="M 191.910156 80.84375 L 191.910156 121.261719 L 102.019531 121.261719 L 98.988281 80.84375 Z M 145.449219 161.683594 L 147.46875 202.105469 L 191.910156 202.105469 L 191.910156 161.683594 Z M 149.488281 222.316406 L 109.089844 222.316406 L 112.121094 277.894531 L 191.910156 304.167969 L 191.910156 261.726562 L 150.5 247.578125 Z M 149.488281 222.316406 " fill-opacity="1" fill-rule="nonzero"/></svg>