<svg xmlns="http://www.w3.org/2000/svg" xmlns:xlink="http://www.w3.org/1999/xlink" width="512" zoomAndPan="magnify" viewBox="0 0 384 383.999986" height="512" preserveAspectRatio="xMidYMid meet" version="1.0"><defs><clipPath id="1195ff2d5a"><path d="M 23.738281 1 L 360.488281 1 L 360.488281 383 L 23.738281 383 Z M 23.738281 1 " clip-rule="nonzero"/></clipPath></defs><g clip-path="url(#1195ff2d5a)"><path fill="#e44d26" d="M 54.308594 344.769531 L 23.644531 1.082031 L 360.582031 1.082031 L 329.894531 344.722656 L 191.898438 382.929688 Z M 54.308594 344.769531 " fill-opacity="1" fill-rule="nonzero"/></g><path fill="#f16529" d="M 303.609375 322.835938 L 329.847656 29.183594 L 192.113281 29.183594 L 192.113281 353.730469 Z M 303.609375 322.835938 " fill-opacity="1" fill-rule="nonzero"/><path fill="#ebebeb" d="M 191.96875 71.332031 L 86.335938 71.332031 L 97.714844 198.800781 L 192.113281 198.800781 L 192.113281 156.652344 L 136.296875 156.652344 L 132.441406 113.492188 L 192.113281 113.492188 L 192.113281 71.332031 Z M 192.113281 265.984375 L 191.933594 266.035156 L 144.957031 253.359375 L 141.972656 219.746094 L 99.601562 219.746094 L 105.511719 285.925781 L 191.921875 309.792969 L 192.113281 309.734375 Z M 192.113281 265.984375 " fill-opacity="1" fill-rule="nonzero"/><path fill="#ffffff" d="M 191.96875 198.800781 L 243.914062 198.800781 L 239.140625 253.457031 L 192.089844 266.140625 L 192.089844 309.996094 L 278.570312 286.046875 L 290.152344 156.628906 L 192.113281 156.628906 Z M 296.625 82.644531 L 297.628906 71.332031 L 191.945312 71.332031 L 191.945312 113.480469 L 293.832031 113.480469 L 294.667969 104.003906 Z M 296.625 82.644531 " fill-opacity="1" fill-rule="nonzero"/></svg>